<?xml version="1.0" standalone="no"?>
<!DOCTYPE svg PUBLIC "-//W3C//DTD SVG 20010904//EN"
 "http://www.w3.org/TR/2001/REC-SVG-20010904/DTD/svg10.dtd">
<svg version="1.0" xmlns="http://www.w3.org/2000/svg"
 width="300.000000pt" height="300.000000pt" viewBox="0 0 300.000000 300.000000"
 preserveAspectRatio="xMidYMid meet">

<g transform="translate(0.000000,300.000000) scale(0.100000,-0.100000)"
fill="#000000" stroke="none">
<path d="M679 1782 c-144 -75 -209 -286 -137 -443 69 -151 226 -208 371 -138
l48 24 19 -25 20 -25 0 113 c0 68 -4 112 -10 112 -5 0 -10 -10 -10 -22 0 -39
-46 -124 -82 -152 -46 -34 -114 -44 -157 -21 -65 33 -97 180 -81 373 13 151
52 212 138 212 78 0 143 -60 173 -158 7 -23 16 -42 21 -42 4 0 8 47 8 105 0
96 -9 129 -24 90 -7 -20 -35 -19 -87 5 -66 30 -144 27 -210 -8z"/>
<path d="M1060 1780 c0 -5 14 -10 30 -10 l30 0 -1 -247 c-1 -137 -4 -259 -8
-273 -4 -14 -17 -29 -29 -35 -45 -20 -25 -35 48 -35 74 0 90 11 40 29 l-30 10
0 272 c0 150 2 270 4 268 2 -2 47 -130 101 -284 94 -269 108 -305 120 -294 3
3 50 134 104 290 l100 284 0 -272 1 -273 -25 0 c-16 0 -25 -6 -25 -15 0 -12
19 -15 115 -15 96 0 115 3 115 15 0 9 -9 15 -25 15 l-25 0 0 280 0 280 25 0
c14 0 25 5 25 10 0 6 -40 10 -100 10 -57 0 -100 -4 -100 -10 0 -20 -134 -390
-139 -384 -3 3 -35 92 -72 197 l-65 192 -107 3 c-69 2 -107 -1 -107 -8z"/>
<path d="M1800 1780 c0 -5 14 -10 30 -10 l30 0 0 -223 c0 -215 1 -226 23 -268
32 -60 96 -99 175 -106 79 -7 155 12 198 49 54 48 64 99 64 328 0 203 3 220
42 220 10 0 18 5 18 10 0 6 -32 10 -75 10 -43 0 -75 -4 -75 -10 0 -5 8 -10 18
-10 39 0 42 -16 42 -240 0 -185 -2 -220 -18 -250 -36 -72 -125 -100 -208 -65
-26 11 -40 26 -57 62 -20 44 -22 68 -25 271 l-4 222 31 0 c17 0 31 5 31 10 0
6 -47 10 -120 10 -73 0 -120 -4 -120 -10z"/>
<path d="M2431 1774 c0 -11 3 -14 6 -6 3 7 2 16 -1 19 -3 4 -6 -2 -5 -13z"/>
</g>
</svg>
